<svg xmlns="http://www.w3.org/2000/svg" viewBox="0 0 1211.37 1211.37"><defs><style>.cls-1{fill:#fff;stroke:#00b7ff;stroke-miterlimit:10;stroke-width:2px;}.cls-2{fill:#00b7ff;}.cls-3{fill:#ff5000;}</style></defs><title>Asset 13</title><g id="Layer_2" data-name="Layer 2"><g id="Layer_1-2" data-name="Layer 1"><path class="cls-1" d="M955.36,582.39q0,6.61-.37,13.14A232.93,232.93,0,0,0,644.91,802.37q-.37,6.52-.37,13.14,0,8.57.61,17a230,230,0,0,0,4.05,29.59,139.1,139.1,0,0,1-43.52-7.92,139,139,0,0,1-43.51,7.92,230,230,0,0,0,4.05-29.59q.6-8.41.61-17,0-6.62-.37-13.14a233,233,0,0,0-3.55-29.64,232.83,232.83,0,0,0-63.3-121,233.4,233.4,0,0,0-243.23-56.21Q256,589,256,582.39C256,458,353.49,356.3,476.25,349.63c4.27-.24,8.55-.36,12.87-.36a232,232,0,0,1,116.56,31.19,232,232,0,0,1,116.56-31.19q6.48,0,12.87.36C857.87,356.3,955.36,458,955.36,582.39Z"/><path class="cls-2" d="M645.55,837.42c-13.1,5.89-26,12.89-39.87,16.75-13.89-3.83-26.78-10.86-39.87-16.75a236.1,236.1,0,0,0-.3-46.8c23-15.54,57.29-15,80.34,0A236.86,236.86,0,0,0,645.55,837.42Z"/><path class="cls-2" d="M653.93,749.77c-15.6-14.22-29.21-12.7-48.25-12.7-18.12,0-33.66-1.36-48.25,12.7a292.25,292.25,0,0,0-20-47.75c12.33-9.87,24.63-17.34,40.78-18.72,9.56-.82,18.71,4.07,27.51,3.83,9.83-.27,17-4.67,27.51-3.83,16.13,1.27,28.52,8.89,40.78,18.72A292.25,292.25,0,0,0,653.93,749.77Z"/><path class="cls-2" d="M700.24,664.28c-16.41-12.44-33.78-21.53-54.79-23-14.11-1-26.75,6.13-39.77,6.13-15.49,0-28.63-7.76-45.39-5.36-18.81,2.7-34.21,10.88-49.16,22.21a294.67,294.67,0,0,0-42.38-38.82c21.94-14.85,44.83-24.87,71.36-27.67a142.77,142.77,0,0,1,37.45.83c8.73,1.38,19.93,7.82,28.12,7.56,7.93-.24,20-6.24,28.13-7.56a142.15,142.15,0,0,1,31.86-1.42c28.37,1.85,53.6,12.45,77,28.26A294.67,294.67,0,0,0,700.24,664.28Z"/><path class="cls-2" d="M954.81,566.23a236,236,0,0,1,.31,26.73c-13.77.82-27.94-5.71-41.53-7.82a234.9,234.9,0,0,0-37.18-2.69c-30,.16-58.3,6.52-86.29,16.93-31.33-19-65.23-31.15-102-33.33a210.23,210.23,0,0,0-43.56,2c-12.12,1.82-27,9.79-38.83,9.79-13.31,0-30.2-8.72-44-10.44a209.93,209.93,0,0,0-44-.81c-34.78,3-66.65,14.87-96.33,32.84-28-10.41-56.33-16.77-86.3-16.93a234.86,234.86,0,0,0-37.17,2.69c-13.59,2.11-27.76,8.64-41.53,7.82a236,236,0,0,1,.31-26.73c57.87-29.9,120.51-48.08,185.69-51.58a448.29,448.29,0,0,1,88.62,4.05c24,3.51,51,16.07,74.81,16.07s50.77-12.56,74.81-16.07a448.29,448.29,0,0,1,88.62-4.05C834.3,518.15,896.94,536.33,954.81,566.23Z"/><path class="cls-2" d="M944.75,512.65c-55.66-33.46-117.54-53.6-182.59-56.88a388.78,388.78,0,0,0-77.36,3.85,380.52,380.52,0,0,0-40.8,8.45c-11,2.9-27.32,12.34-38.32,12.34s-27.36-9.44-38.32-12.34a385.87,385.87,0,0,0-118.16-12.3c-65,3.28-126.92,23.42-182.58,56.88a269.74,269.74,0,0,1,34.24-67.77c84.22-71.41,198.79-110.73,304.82-64.42,105.9-46.38,220.74-7,304.82,64.42A269.77,269.77,0,0,1,944.75,512.65Z"/><path class="cls-3" d="M969.09,242.27c-200.7-200.7-526.11-200.7-726.82,0s-200.7,526.12,0,726.82,526.12,200.71,726.82,0S1169.8,443,969.09,242.27ZM908.52,908.52c-167.25,167.26-438.43,167.26-605.68,0s-167.26-438.43,0-605.68,438.43-167.26,605.68,0S1075.78,741.27,908.52,908.52Z"/><polygon class="cls-3" points="242.27 423.98 0 60.57 60.57 0 423.98 242.27 514.83 514.83 242.27 423.98"/><polygon class="cls-3" points="787.39 969.09 1150.8 1211.37 1211.37 1150.8 969.09 787.39 696.53 696.53 787.39 969.09"/><polygon class="cls-3" points="423.98 969.09 60.57 1211.37 0 1150.8 242.27 787.39 514.83 696.53 423.98 969.09"/><polygon class="cls-3" points="969.09 423.98 1211.37 60.57 1150.8 0 787.39 242.27 696.53 514.83 969.09 423.98"/></g></g></svg>