<?xml version="1.0" encoding="UTF-8" standalone="no"?>
<svg
   xmlns:dc="http://purl.org/dc/elements/1.1/"
   xmlns:cc="http://creativecommons.org/ns#"
   xmlns:rdf="http://www.w3.org/1999/02/22-rdf-syntax-ns#"
   xmlns:svg="http://www.w3.org/2000/svg"
   xmlns="http://www.w3.org/2000/svg"
   xmlns:sodipodi="http://sodipodi.sourceforge.net/DTD/sodipodi-0.dtd"
   xmlns:inkscape="http://www.inkscape.org/namespaces/inkscape"
   viewBox="0 0 5225.55 1114.53"
   version="1.1"
   id="svg80"
   sodipodi:docname="Asset_15.svg"
   inkscape:version="1.0.2 (e86c870879, 2021-01-15)">
  <metadata
     id="metadata84">
    <rdf:RDF>
      <cc:Work
         rdf:about="">
        <dc:format>image/svg+xml</dc:format>
        <dc:type
           rdf:resource="http://purl.org/dc/dcmitype/StillImage" />
      </cc:Work>
    </rdf:RDF>
  </metadata>
  <sodipodi:namedview
     pagecolor="#ffffff"
     bordercolor="#666666"
     borderopacity="1"
     objecttolerance="10"
     gridtolerance="10"
     guidetolerance="10"
     inkscape:pageopacity="0"
     inkscape:pageshadow="2"
     inkscape:window-width="1920"
     inkscape:window-height="1020"
     id="namedview82"
     showgrid="false"
     inkscape:zoom="0.11644045"
     inkscape:cx="3808.0616"
     inkscape:cy="325.59412"
     inkscape:window-x="0"
     inkscape:window-y="28"
     inkscape:window-maximized="0"
     inkscape:current-layer="Layer_2" />
  <defs
     id="defs4">
    <style
       id="style2">.cls-1{fill:#fff;stroke:#00b7ff;stroke-miterlimit:10;stroke-width:2px;}.cls-2{fill:#00b7ff;}.cls-3{fill:#ff5000;}</style>
  </defs>
  <title
     id="title6">Asset 15</title>
  <g
     id="Layer_2"
     data-name="Layer 2">
    <g
       id="Layer_1-2"
       data-name="Layer 1">
      <path
         class="cls-1"
         d="M879,535.84q0,6.07-.34,12.08A214.28,214.28,0,0,0,593.36,738.23q-.35,6-.35,12.09c0,5.26.2,10.47.57,15.63a211.64,211.64,0,0,0,3.72,27.23,128.16,128.16,0,0,1-40-7.29,128.27,128.27,0,0,1-40,7.29A213.41,213.41,0,0,0,521,766q.56-7.74.56-15.63,0-6.09-.34-12.09a213.32,213.32,0,0,0-42.43-116.46,214.81,214.81,0,0,0-242.87-73.85q-.33-6-.34-12.08c0-114.48,89.7-208,202.65-214.16q5.88-.33,11.84-.33a213.51,213.51,0,0,1,107.24,28.7,213.49,213.49,0,0,1,107.24-28.7q6,0,11.84.33C789.3,327.82,879,421.36,879,535.84Z"
         id="path8" />
      <path
         class="cls-2"
         d="M594,770.48c-12.05,5.42-23.9,11.85-36.68,15.41-12.79-3.52-24.64-10-36.69-15.41a293.32,293.32,0,0,0-.27-43.06c21.77-13.74,52.17-14.11,73.92,0A293.32,293.32,0,0,0,594,770.48Z"
         id="path10" />
      <path
         class="cls-2"
         d="M601.66,689.84c-20.38-18.57-68.52-19.54-88.78,0a213.29,213.29,0,0,0-18.44-43.93c22.42-17.73,36.17-15.12,62.83-15.12,26.42,0,39.93-3,62.83,15.12A212.75,212.75,0,0,0,601.66,689.84Z"
         id="path12" />
      <path
         class="cls-2"
         d="M644.26,611.18c-14.65-11-29.51-18.82-48-20.74-13.78-1.43-25.78,3.62-39,3.62-15.37,0-28.54-5.65-44.48-3.06-16.19,2.64-29.64,10.5-42.52,20.18a272.65,272.65,0,0,0-39-35.72c20.07-13.48,41.4-23.05,65.68-25.55a134.32,134.32,0,0,1,32.12.51c8.37,1.18,20.08,7.07,28.19,7.31,8.32.24,19.68-6.11,28.19-7.31a132.77,132.77,0,0,1,32.12-.51c24.28,2.52,45.57,12.05,65.68,25.55A271.61,271.61,0,0,0,644.26,611.18Z"
         id="path14" />
      <path
         class="cls-2"
         d="M878.48,521a215.32,215.32,0,0,1,.22,26c-53.92-11.46-98.81-15.09-151.74,4.48-28.25-17-58.44-28.16-91.53-30.51a192.5,192.5,0,0,0-44,1.87c-11.29,1.79-22.9,7.17-34.2,7.17s-22.92-5.38-34.2-7.17a192.53,192.53,0,0,0-44-1.87c-33.1,2.35-63.29,13.52-91.53,30.51-52.93-19.57-97.83-15.94-151.75-4.48a217.37,217.37,0,0,1,.22-26c54.28-28,112.83-44.78,174-47.6a412.47,412.47,0,0,1,77.42,3.73q15.51,2.24,30.83,5.63c11.6,2.58,27.38,10.71,39,10.71,10.18,0,23.86-7.15,34-9.54q17.76-4.17,35.82-6.8a412.43,412.43,0,0,1,77.42-3.73C765.63,476.18,824.21,493,878.48,521Z"
         id="path16" />
      <path
         class="cls-2"
         d="M869.23,471.67c-50.67-30.35-106.43-48.77-165.56-52.16a355.49,355.49,0,0,0-77.32,4c-22.05,3.58-47.37,16.77-69.08,16.77-23.36,0-50.48-14.12-74.32-17.62a356.24,356.24,0,0,0-77.84-2.81C348,424,294.25,442.35,245.31,471.67c7.67-22.39,17.47-43.18,31.5-62.35,77.74-65.73,182.68-101.7,280.46-59.27,97.65-42.52,202.84-6.45,280.45,59.27C851.75,428.49,861.56,449.28,869.23,471.67Z"
         id="path18" />
      <path
         d="M1268.6,764.93q-37,0-52.95-11t-16-34.35a111.16,111.16,0,0,1,.73-12.58,94.86,94.86,0,0,1,2.9-14.41L1270.78,422q9.42-36.81,32.28-54.6t69.27-17.79h276.38l-20.31,82.82h-222q-17.42,0-23.58,4.6t-9.79,18.71l-51.5,202.44q-.74,3.08-1.09,5.22a26.9,26.9,0,0,0-.36,4.6c0,4.5,1.68,7.77,5.07,9.81s9.67,3.07,18.86,3.07h223.42l-21,84Z"
         id="path20" />
      <path
         d="M1642.18,764.93q-37.73,0-53.68-11t-16-34.35a119.19,119.19,0,0,1,.73-12.88,78.74,78.74,0,0,1,2.9-14.11l85.59-342.93H1772L1694.41,660q-2.19,7.37-2.18,11.05,0,6.75,5.08,8.89t16.68,2.15h145.08q14.51,0,21-4t10.15-18.1l77.62-310.41h105.9l-85.59,342.93q-9.43,36.81-32.28,54.6t-69.28,17.79Z"
         id="path22" />
      <path
         d="M2350.15,764.93l-185.7-272.38-68.19,272.38H1994l103.73-415.32h103.73l161,247.84,61.66-247.84h103L2423.41,764.93Z"
         id="path24" />
      <path
         d="M2805.69,764.93,2620,492.55,2551.8,764.93H2449.52l103.73-415.32H2657l161,247.84,61.65-247.84h103L2879,764.93Z"
         id="path26" />
      <path
         d="M3034.17,764.93,3077,593.77l-97.92-244.16h115.33l60.21,163.79,142.17-163.79H3407l-219.8,244.16-42.8,171.16Z"
         id="path28" />
      <path
         d="M3713.13,764.93,3695,468.62,3516.55,764.93H3393.23l-18.86-415.32h113.16l8,304.28,177.72-304.28h110.26l15.24,303.66,167.56-303.66h108.08l-237.2,415.32Z"
         id="path30" />
      <path
         d="M4225.25,764.93l-5.08-64.42h-177l-37.73,64.42H3898.82l255.34-415.32h144.35l37.72,415.32ZM4201.31,433l-119,198.76h134.19Z"
         id="path32" />
      <path
         d="M4627.1,764.93l33.37-135.58q.72-3.06,1.09-5.22a24,24,0,0,0,.36-4q0-9.81-20.31-9.82H4482.75l-38.44,154.6H4334.05l76.16-303.67h110.26l-20.31,80.36H4651q15.95,0,21.4-4.29t9.07-17.18l17.41-67.48c.47-2,.84-3.88,1.09-5.52a31.56,31.56,0,0,0,.36-4.29q0-7.37-5.08-9.82t-17.41-2.45H4417.47l20.31-81h311.91q37.71,0,54.41,11.35t16.68,34.66a67.37,67.37,0,0,1-1.08,11.66q-1.09,6.14-2.54,12.88l-22.49,90.18q-8,31.91-29,45.09a105.08,105.08,0,0,1-46.42,15.64q23.2,1.23,39.17,8.9t16,27.29v6.45a19.32,19.32,0,0,1-1.45,7l-35.55,144.17Z"
         id="path34" />
      <path
         d="M4757.67,764.93l76.17-303.67h113.88l-17.41,67.48h180.62L5094.25,595H4913.63l-21.76,87.12h250.26l-20.32,82.82Zm83.42-334.34,20.31-81h364.15l-20.32,81Z"
         id="path36" />
      <path
         class="cls-3"
         d="M891.63,222.9C707,38.24,407.57,38.24,222.9,222.9S38.24,707,222.9,891.63s484.07,184.66,668.73,0S1076.29,407.57,891.63,222.9Zm-55.73,613C682,989.79,432.52,989.79,278.63,835.9s-153.88-403.38,0-557.27,403.39-153.88,557.27,0S989.79,682,835.9,835.9Z"
         id="path38" />
      <polygon
         class="cls-3"
         points="222.91 390.09 0 55.73 55.73 0 390.09 222.91 473.68 473.68 222.91 390.09"
         id="polygon40" />
      <polygon
         class="cls-3"
         points="724.45 891.63 1058.81 1114.53 1114.54 1058.81 891.63 724.45 640.86 640.86 724.45 891.63"
         id="polygon42" />
      <polygon
         class="cls-3"
         points="390.09 891.63 55.73 1114.53 0 1058.81 222.91 724.45 473.68 640.86 390.09 891.63"
         id="polygon44" />
      <polygon
         class="cls-3"
         points="891.63 390.09 1114.54 55.73 1058.81 0 724.45 222.91 640.86 473.68 891.63 390.09"
         id="polygon46" />
    </g>
  </g>
</svg>
