<svg xmlns="http://www.w3.org/2000/svg" viewBox="0 0 1284.85 1380.65"><defs><style>.cls-1{fill:#fff;stroke:#00b7ff;stroke-miterlimit:10;stroke-width:2px;}.cls-2{fill:#00b7ff;}.cls-3{fill:#ff5000;}</style></defs><title>Asset 10</title><g id="Layer_2" data-name="Layer 2"><g id="Layer_1-2" data-name="Layer 1"><path class="cls-1" d="M992.1,582.39q0,6.61-.37,13.14A232.93,232.93,0,0,0,681.65,802.37q-.37,6.52-.37,13.14,0,8.57.61,17a230,230,0,0,0,4.05,29.59,139.1,139.1,0,0,1-43.52-7.92,139,139,0,0,1-43.51,7.92A230,230,0,0,0,603,832.5q.6-8.41.61-17,0-6.62-.37-13.14a232.68,232.68,0,0,0-66.85-150.63,233.4,233.4,0,0,0-243.23-56.21q-.37-6.53-.37-13.14C292.75,458,390.23,356.3,513,349.63q6.39-.36,12.86-.36a232,232,0,0,1,116.56,31.19A232,232,0,0,1,759,349.27q6.48,0,12.87.36C894.61,356.3,992.1,458,992.1,582.39Z"/><path class="cls-2" d="M682.29,837.42c-13.09,5.89-26,12.89-39.87,16.75-13.89-3.83-26.78-10.86-39.87-16.75a236.1,236.1,0,0,0-.3-46.8c23-15.54,57.29-15,80.34,0A236.86,236.86,0,0,0,682.29,837.42Z"/><path class="cls-2" d="M690.67,749.77c-15.6-14.22-29.21-12.7-48.25-12.7-18.12,0-33.66-1.36-48.24,12.7a292.29,292.29,0,0,0-20-47.75c12.33-9.87,24.63-17.34,40.78-18.72,9.56-.82,18.71,4.07,27.51,3.83,9.83-.27,17-4.67,27.51-3.83,16.13,1.27,28.52,8.89,40.78,18.72A292.25,292.25,0,0,0,690.67,749.77Z"/><path class="cls-2" d="M737,664.28c-16.41-12.44-33.78-21.53-54.79-23-14.11-1-26.75,6.13-39.77,6.13-15.48,0-28.63-7.76-45.39-5.36-18.81,2.7-34.21,10.88-49.16,22.21a294.67,294.67,0,0,0-42.38-38.82c21.94-14.85,44.83-24.87,71.36-27.67a142.76,142.76,0,0,1,37.45.83c8.73,1.38,19.93,7.82,28.12,7.56,7.93-.24,20-6.24,28.13-7.56a142.15,142.15,0,0,1,31.86-1.42c28.37,1.85,53.6,12.45,77,28.26A294.67,294.67,0,0,0,737,664.28Z"/><path class="cls-2" d="M991.55,566.23a236,236,0,0,1,.31,26.73c-13.77.82-27.94-5.71-41.53-7.82a234.9,234.9,0,0,0-37.18-2.69c-30,.16-58.3,6.52-86.29,16.93-31.33-19-65.23-31.15-102.05-33.33a210.23,210.23,0,0,0-43.56,2c-12.12,1.82-27,9.79-38.83,9.79-13.31,0-30.2-8.72-44-10.44a209.93,209.93,0,0,0-44-.81c-34.78,3-66.65,14.87-96.33,32.84-28-10.41-56.33-16.77-86.3-16.93a234.86,234.86,0,0,0-37.17,2.69c-13.59,2.11-27.76,8.64-41.53,7.82a236,236,0,0,1,.31-26.73c57.87-29.9,120.51-48.08,185.7-51.58a448.36,448.36,0,0,1,88.62,4.05c24,3.51,51,16.07,74.8,16.07s50.77-12.56,74.81-16.07a448.29,448.29,0,0,1,88.62-4.05C871,518.15,933.68,536.33,991.55,566.23Z"/><path class="cls-2" d="M981.49,512.65C925.83,479.19,864,459.05,798.9,455.77a388.78,388.78,0,0,0-77.36,3.85,380.52,380.52,0,0,0-40.8,8.45c-11,2.9-27.31,12.34-38.32,12.34S615.06,471,604.1,468.07a385.87,385.87,0,0,0-118.16-12.3c-65,3.28-126.92,23.42-182.58,56.88a269.74,269.74,0,0,1,34.24-67.77c84.22-71.41,198.79-110.73,304.82-64.42,105.91-46.38,220.74-7,304.82,64.42A269.77,269.77,0,0,1,981.49,512.65Z"/><path d="M22,1380.65q-11.8,0-16.9-3.52t-5.09-11a37,37,0,0,1,.23-4,29.51,29.51,0,0,1,.93-4.6l21.53-86.34q3-11.74,10.3-17.42t22.11-5.68h88.2l-6.48,26.43H66q-5.55,0-7.52,1.47t-3.13,6l-16.44,64.61c-.15.65-.27,1.21-.34,1.66a8.58,8.58,0,0,0-.12,1.47,3.37,3.37,0,0,0,1.62,3.13c1.08.66,3.09,1,6,1h71.3l-6.71,26.82Z"/><path d="M141.22,1380.65q-12,0-17.13-3.52t-5.1-11a37.31,37.31,0,0,1,.24-4.12,25.53,25.53,0,0,1,.92-4.5l27.32-109.44h35.19l-24.77,99.06a13.65,13.65,0,0,0-.7,3.53,2.76,2.76,0,0,0,1.62,2.84,14.83,14.83,0,0,0,5.33.68h46.3c3.09,0,5.32-.42,6.71-1.27s2.47-2.77,3.24-5.78l24.78-99.06H279l-27.32,109.44q-3,11.75-10.3,17.43t-22.11,5.67Z"/><path d="M367.17,1380.65l-59.27-86.92-21.76,86.92H253.5l33.1-132.54h33.11l51.39,79.09,19.68-79.09h32.87l-33.1,132.54Z"/><path d="M512.55,1380.65l-59.26-86.92-21.77,86.92H398.88L432,1248.11h33.1l51.4,79.09,19.67-79.09H569l-33.11,132.54Z"/><path d="M585.47,1380.65,599.13,1326l-31.25-77.92h36.81l19.21,52.27,45.38-52.27h35.19L634.32,1326l-13.66,54.62Z"/><path d="M802.16,1380.65l-5.79-94.56-57,94.56H700.07l-6-132.54h36.11l2.55,97.11,56.72-97.11h35.19l4.86,96.91L883,1248.11h34.49l-75.7,132.54Z"/><path d="M965.6,1380.65,964,1360.1H907.5l-12,20.55h-34l81.49-132.54H989l12,132.54ZM958,1274.73l-38,63.44h42.83Z"/><path d="M1093.85,1380.65l10.65-43.26c.16-.66.27-1.21.35-1.67a7.33,7.33,0,0,0,.12-1.27c0-2.09-2.17-3.13-6.48-3.13h-50.7l-12.27,49.33h-35.19l24.3-96.91h35.19l-6.48,25.65h48.16c3.39,0,5.67-.46,6.82-1.37s2.12-2.74,2.9-5.48l5.55-21.54c.16-.65.27-1.24.35-1.76a9.19,9.19,0,0,0,.12-1.37,3.16,3.16,0,0,0-1.62-3.14,14,14,0,0,0-5.56-.78H1027l6.48-25.84H1133q12,0,17.36,3.62t5.33,11.06a21.4,21.4,0,0,1-.35,3.72q-.35,2-.81,4.11l-7.18,28.78q-2.55,10.18-9.26,14.39a33.52,33.52,0,0,1-14.81,5,32.87,32.87,0,0,1,12.5,2.83q5.09,2.46,5.09,8.72v2.05a6.07,6.07,0,0,1-.46,2.25l-11.35,46Z"/><path d="M1135.53,1380.65l24.3-96.91h36.35l-5.56,21.54h57.65l-5.33,21.14H1185.3l-7,27.8h79.87l-6.48,26.43Zm26.62-106.7,6.48-25.84h116.22l-6.49,25.84Z"/><path class="cls-3" d="M1005.84,242.27c-200.71-200.7-526.12-200.7-726.83,0s-200.7,526.12,0,726.82,526.12,200.71,726.83,0S1206.54,443,1005.84,242.27ZM945.26,908.52c-167.25,167.26-438.43,167.26-605.68,0s-167.26-438.43,0-605.68,438.43-167.26,605.68,0S1112.52,741.27,945.26,908.52Z"/><polygon class="cls-3" points="279.01 423.98 36.74 60.57 97.31 0 460.72 242.27 551.57 514.83 279.01 423.98"/><polygon class="cls-3" points="824.13 969.09 1187.54 1211.37 1248.11 1150.8 1005.83 787.39 733.28 696.53 824.13 969.09"/><polygon class="cls-3" points="460.72 969.09 97.31 1211.37 36.74 1150.8 279.01 787.39 551.57 696.53 460.72 969.09"/><polygon class="cls-3" points="1005.83 423.98 1248.11 60.57 1187.54 0 824.13 242.27 733.28 514.83 1005.83 423.98"/></g></g></svg>