<svg xmlns="http://www.w3.org/2000/svg" viewBox="0 0 5225.55 1114.53"><defs><style>.cls-1{fill:#fff;stroke:#00b7ff;stroke-miterlimit:10;stroke-width:2px;}.cls-2{fill:#00b7ff;}.cls-3{fill:#ff5000;}</style></defs><title>Asset 15</title><g id="Layer_2" data-name="Layer 2"><g id="Layer_1-2" data-name="Layer 1"><path class="cls-1" d="M879,535.84q0,6.07-.34,12.08A214.28,214.28,0,0,0,593.36,738.23q-.35,6-.35,12.09c0,5.26.2,10.47.57,15.63a211.64,211.64,0,0,0,3.72,27.23,128.16,128.16,0,0,1-40-7.29,128.27,128.27,0,0,1-40,7.29A213.41,213.41,0,0,0,521,766q.56-7.74.56-15.63,0-6.09-.34-12.09a213.32,213.32,0,0,0-42.43-116.46,214.81,214.81,0,0,0-242.87-73.85q-.33-6-.34-12.08c0-114.48,89.7-208,202.65-214.16q5.88-.33,11.84-.33a213.51,213.51,0,0,1,107.24,28.7,213.49,213.49,0,0,1,107.24-28.7q6,0,11.84.33C789.3,327.82,879,421.36,879,535.84Z"/><path class="cls-2" d="M594,770.48c-12.05,5.42-23.9,11.85-36.68,15.41-12.79-3.52-24.64-10-36.69-15.41a293.32,293.32,0,0,0-.27-43.06c21.77-13.74,52.17-14.11,73.92,0A293.32,293.32,0,0,0,594,770.48Z"/><path class="cls-2" d="M601.66,689.84c-20.38-18.57-68.52-19.54-88.78,0a213.29,213.29,0,0,0-18.44-43.93c22.42-17.73,36.17-15.12,62.83-15.12,26.42,0,39.93-3,62.83,15.12A212.75,212.75,0,0,0,601.66,689.84Z"/><path class="cls-2" d="M644.26,611.18c-14.65-11-29.51-18.82-48-20.74-13.78-1.43-25.78,3.62-39,3.62-15.37,0-28.54-5.65-44.48-3.06-16.19,2.64-29.64,10.5-42.52,20.18a272.65,272.65,0,0,0-39-35.72c20.07-13.48,41.4-23.05,65.68-25.55a134.32,134.32,0,0,1,32.12.51c8.37,1.18,20.08,7.07,28.19,7.31,8.32.24,19.68-6.11,28.19-7.31a132.77,132.77,0,0,1,32.12-.51c24.28,2.52,45.57,12.05,65.68,25.55A271.61,271.61,0,0,0,644.26,611.18Z"/><path class="cls-2" d="M878.48,521a215.32,215.32,0,0,1,.22,26c-53.92-11.46-98.81-15.09-151.74,4.48-28.25-17-58.44-28.16-91.53-30.51a192.5,192.5,0,0,0-44,1.87c-11.29,1.79-22.9,7.17-34.2,7.17s-22.92-5.38-34.2-7.17a192.53,192.53,0,0,0-44-1.87c-33.1,2.35-63.29,13.52-91.53,30.51-52.93-19.57-97.83-15.94-151.75-4.48a217.37,217.37,0,0,1,.22-26c54.28-28,112.83-44.78,174-47.6a412.47,412.47,0,0,1,77.42,3.73q15.51,2.24,30.83,5.63c11.6,2.58,27.38,10.71,39,10.71,10.18,0,23.86-7.15,34-9.54q17.76-4.17,35.82-6.8a412.43,412.43,0,0,1,77.42-3.73C765.63,476.18,824.21,493,878.48,521Z"/><path class="cls-2" d="M869.23,471.67c-50.67-30.35-106.43-48.77-165.56-52.16a355.49,355.49,0,0,0-77.32,4c-22.05,3.58-47.37,16.77-69.08,16.77-23.36,0-50.48-14.12-74.32-17.62a356.24,356.24,0,0,0-77.84-2.81C348,424,294.25,442.35,245.31,471.67c7.67-22.39,17.47-43.18,31.5-62.35,77.74-65.73,182.68-101.7,280.46-59.27,97.65-42.52,202.84-6.45,280.45,59.27C851.75,428.49,861.56,449.28,869.23,471.67Z"/><path d="M1268.6,764.93q-37,0-52.95-11t-16-34.35a111.16,111.16,0,0,1,.73-12.58,94.86,94.86,0,0,1,2.9-14.41L1270.78,422q9.42-36.81,32.28-54.6t69.27-17.79h276.38l-20.31,82.82h-222q-17.42,0-23.58,4.6t-9.79,18.71l-51.5,202.44q-.74,3.08-1.09,5.22a26.9,26.9,0,0,0-.36,4.6c0,4.5,1.68,7.77,5.07,9.81s9.67,3.07,18.86,3.07h223.42l-21,84Z"/><path d="M1642.18,764.93q-37.73,0-53.68-11t-16-34.35a119.19,119.19,0,0,1,.73-12.88,78.74,78.74,0,0,1,2.9-14.11l85.59-342.93H1772L1694.41,660q-2.19,7.37-2.18,11.05,0,6.75,5.08,8.89t16.68,2.15h145.08q14.51,0,21-4t10.15-18.1l77.62-310.41h105.9l-85.59,342.93q-9.43,36.81-32.28,54.6t-69.28,17.79Z"/><path d="M2350.15,764.93l-185.7-272.38-68.19,272.38H1994l103.73-415.32h103.73l161,247.84,61.66-247.84h103L2423.41,764.93Z"/><path d="M2805.69,764.93,2620,492.55,2551.8,764.93H2449.52l103.73-415.32H2657l161,247.84,61.65-247.84h103L2879,764.93Z"/><path d="M3034.17,764.93,3077,593.77l-97.92-244.16h115.33l60.21,163.79,142.17-163.79H3407l-219.8,244.16-42.8,171.16Z"/><path d="M3713.13,764.93,3695,468.62,3516.55,764.93H3393.23l-18.86-415.32h113.16l8,304.28,177.72-304.28h110.26l15.24,303.66,167.56-303.66h108.08l-237.2,415.32Z"/><path d="M4225.25,764.93l-5.08-64.42h-177l-37.73,64.42H3898.82l255.34-415.32h144.35l37.72,415.32ZM4201.31,433l-119,198.76h134.19Z"/><path d="M4627.1,764.93l33.37-135.58q.72-3.06,1.09-5.22a24,24,0,0,0,.36-4q0-9.81-20.31-9.82H4482.75l-38.44,154.6H4334.05l76.16-303.67h110.26l-20.31,80.36H4651q15.95,0,21.4-4.29t9.07-17.18l17.41-67.48c.47-2,.84-3.88,1.09-5.52a31.56,31.56,0,0,0,.36-4.29q0-7.37-5.08-9.82t-17.41-2.45H4417.47l20.31-81h311.91q37.71,0,54.41,11.35t16.68,34.66a67.37,67.37,0,0,1-1.08,11.66q-1.09,6.14-2.54,12.88l-22.49,90.18q-8,31.91-29,45.09a105.08,105.08,0,0,1-46.42,15.64q23.2,1.23,39.17,8.9t16,27.29v6.45a19.32,19.32,0,0,1-1.45,7l-35.55,144.17Z"/><path d="M4757.67,764.93l76.17-303.67h113.88l-17.41,67.48h180.62L5094.25,595H4913.63l-21.76,87.12h250.26l-20.32,82.82Zm83.42-334.34,20.31-81h364.15l-20.32,81Z"/><path class="cls-3" d="M891.63,222.9C707,38.24,407.57,38.24,222.9,222.9S38.24,707,222.9,891.63s484.07,184.66,668.73,0S1076.29,407.57,891.63,222.9Zm-55.73,613C682,989.79,432.52,989.79,278.63,835.9s-153.88-403.38,0-557.27,403.39-153.88,557.27,0S989.79,682,835.9,835.9Z"/><polygon class="cls-3" points="222.91 390.09 0 55.73 55.73 0 390.09 222.91 473.68 473.68 222.91 390.09"/><polygon class="cls-3" points="724.45 891.63 1058.81 1114.53 1114.54 1058.81 891.63 724.45 640.86 640.86 724.45 891.63"/><polygon class="cls-3" points="390.09 891.63 55.73 1114.53 0 1058.81 222.91 724.45 473.68 640.86 390.09 891.63"/><polygon class="cls-3" points="891.63 390.09 1114.54 55.73 1058.81 0 724.45 222.91 640.86 473.68 891.63 390.09"/><path d="M2443.9,944.76h-63.2v60.8h-22.6V866h22.6v58.8h63.2V866h22.6v139.6h-22.6Z"/><path d="M2510.3,883q-6.8,0-9.9-3.2a11.27,11.27,0,0,1-3.1-8.2v-3.4a11.3,11.3,0,0,1,3.1-8.2q3.1-3.19,9.9-3.2t9.8,3.2a11.53,11.53,0,0,1,3,8.2v3.4a11.49,11.49,0,0,1-3,8.2Q2517.1,883,2510.3,883Zm-11,18.6h21.8v104h-21.8Z"/><path d="M2581.1,1005.56q-11.4,0-17.2-5.9t-5.8-16.7v-63.6h-16.2v-17.8h8.8q5.4,0,7.5-2.4t2.1-7.8v-18.2h19.6v28.4h21.8v17.8h-21.8v68.4h20.2v17.8Z"/><path d="M2652.7,1005.56q-11.4,0-17.2-5.9t-5.8-16.7v-63.6h-16.2v-17.8h8.8q5.4,0,7.5-2.4t2.1-7.8v-18.2h19.6v28.4h21.8v17.8h-21.8v68.4h20.2v17.8Z"/><path d="M2707.9,883q-6.8,0-9.9-3.2a11.27,11.27,0,0,1-3.1-8.2v-3.4a11.3,11.3,0,0,1,3.1-8.2q3.11-3.19,9.9-3.2t9.8,3.2a11.53,11.53,0,0,1,3,8.2v3.4a11.49,11.49,0,0,1-3,8.2Q2714.7,883,2707.9,883Zm-11,18.6h21.8v104h-21.8Z"/><path d="M2749.9,1005.56v-104h21.8v17.2h1a34.36,34.36,0,0,1,10.3-14q6.9-5.6,18.9-5.6,16,0,24.9,10.5t8.9,29.9v66h-21.8v-63.2q0-24.39-19.6-24.4a32,32,0,0,0-8.3,1.1,23.84,23.84,0,0,0-7.3,3.3,16.59,16.59,0,0,0-5.1,5.6,16.13,16.13,0,0,0-1.9,8v69.6Z"/><path d="M2957.1,1015.36q0,16.2-12.4,24.4t-40.4,8.2a118.07,118.07,0,0,1-21.7-1.7,48.51,48.51,0,0,1-14.6-4.9,20.9,20.9,0,0,1-8.3-7.8,21.11,21.11,0,0,1-2.6-10.6q0-8.6,4.7-13.4t13.1-6.6v-2.2q-11.8-3.79-11.8-16,0-8,5.4-12.3a32.68,32.68,0,0,1,13-6.1v-.8a32.58,32.58,0,0,1-14.1-12.3,34.32,34.32,0,0,1-4.9-18.5q0-16,10.7-25.8t30.7-9.8q11,0,18.8,3.2v-2.8q0-7,3.3-10.9t10.3-3.9h16v17.6h-21.2v4.2a31.56,31.56,0,0,1,10.8,11.9,34.82,34.82,0,0,1,3.8,16.3q0,15.81-10.8,25.5t-30.8,9.7a52.71,52.71,0,0,1-13.6-1.6,22.58,22.58,0,0,0-7,3.9,8.08,8.08,0,0,0-3,6.5,6.16,6.16,0,0,0,3.8,6q3.79,1.8,10.8,1.8h25.6q19.2,0,27.8,7.7T2957.1,1015.36Zm-20.4,2.4a10.35,10.35,0,0,0-4.1-8.6q-4.11-3.2-14.9-3.2h-35.2q-7.2,4.2-7.2,12a12.33,12.33,0,0,0,5.1,10.3q5.1,3.9,17.3,3.9h13.6Q2936.7,1032.16,2936.7,1017.76Zm-32.6-63.6q9.6,0,14.9-4.3t5.3-13.3v-4q0-9-5.3-13.3t-14.9-4.3q-9.6,0-14.9,4.3t-5.3,13.3v4q0,9,5.3,13.3T2904.1,954.16Z"/><path d="M3020.49,901.56h21.8v17.2h1a28.46,28.46,0,0,1,11.1-14.5,32,32,0,0,1,18.1-5.1q19.8,0,30.6,14.3t10.8,40.1q0,25.8-10.8,40.1t-30.6,14.3a31.54,31.54,0,0,1-18.1-5.2,29,29,0,0,1-11.1-14.4h-1v57.2h-21.8Zm45.4,87.6q11.4,0,18.2-7.3t6.8-19.3v-18q0-12-6.8-19.3t-18.2-7.3q-10,0-16.8,4.9a15.2,15.2,0,0,0-6.8,12.9v35.6a15.17,15.17,0,0,0,6.8,12.9Q3055.9,989.17,3065.89,989.16Z"/><path d="M3226.89,1008a49.71,49.71,0,0,1-19.7-3.8,41.16,41.16,0,0,1-15.1-10.9,50.11,50.11,0,0,1-9.6-17.2,76.15,76.15,0,0,1,0-45,50.3,50.3,0,0,1,9.6-17.2,41.39,41.39,0,0,1,15.1-10.9,53,53,0,0,1,39.4,0,41.39,41.39,0,0,1,15.1,10.9,50.3,50.3,0,0,1,9.6,17.2,76.15,76.15,0,0,1,0,45,50.11,50.11,0,0,1-9.6,17.2,41.16,41.16,0,0,1-15.1,10.9A49.71,49.71,0,0,1,3226.89,1008Zm0-18.2q11.21,0,18-6.86t6.8-20.58V944.81q0-13.72-6.8-20.58t-18-6.87q-11.2,0-18,6.87t-6.8,20.58v17.51q0,13.73,6.8,20.58T3226.89,989.76Z"/><path d="M3298.89,1005.56v-104h21.8v17.2h1a34.36,34.36,0,0,1,10.3-14q6.9-5.6,18.9-5.6,16,0,24.9,10.5t8.9,29.9v66h-21.8v-63.2q0-24.39-19.6-24.4a32,32,0,0,0-8.3,1.1,23.84,23.84,0,0,0-7.3,3.3,16.59,16.59,0,0,0-5.1,5.6,16.13,16.13,0,0,0-1.9,8v69.6Z"/><path d="M3502.29,1008a50,50,0,0,1-20-3.8,39.53,39.53,0,0,1-14.8-10.9,49.27,49.27,0,0,1-9.2-17.2,80.46,80.46,0,0,1,0-45,49.45,49.45,0,0,1,9.2-17.2,39.74,39.74,0,0,1,14.8-10.9,50,50,0,0,1,20-3.8q15.6,0,25.6,7a40.42,40.42,0,0,1,14.6,18.6l-18,8.4a22.6,22.6,0,0,0-7.7-11.5q-5.51-4.29-14.5-4.3-12,0-18.1,7.48t-6.11,19.45v18.55q0,12,6.11,19.44t18.1,7.48q9.6,0,15.29-4.7a32.79,32.79,0,0,0,9.11-12.5l16.6,8.8q-5.2,12.85-15.6,19.73T3502.29,1008Z"/><path d="M3627.08,988.36h-.8a37.62,37.62,0,0,1-3.7,7.4,24.57,24.57,0,0,1-5.8,6.3,27.47,27.47,0,0,1-8.4,4.3,36.26,36.26,0,0,1-11.3,1.6q-16.2,0-25.1-10.4t-8.9-29.8v-66.2h21.8V965q0,24.21,20,24.2a30.48,30.48,0,0,0,8.2-1.1,22.18,22.18,0,0,0,7.1-3.3,16.64,16.64,0,0,0,5-5.6,16.08,16.08,0,0,0,1.9-8v-69.6h21.8v104h-21.8Z"/><path d="M3680.08,1005.56v-104h21.8v17.2h1a34.36,34.36,0,0,1,10.3-14q6.9-5.6,18.9-5.6,16,0,24.9,10.5t8.9,29.9v66h-21.8v-63.2q0-24.39-19.6-24.4a32,32,0,0,0-8.3,1.1,23.84,23.84,0,0,0-7.3,3.3,16.59,16.59,0,0,0-5.1,5.6,16.13,16.13,0,0,0-1.9,8v69.6Z"/><path d="M3796.08,1005.56v-104h21.8v17.2h1a34.27,34.27,0,0,1,10.3-14q6.9-5.6,18.9-5.6,16,0,24.9,10.5t8.9,29.9v66h-21.8v-63.2q0-24.39-19.6-24.4a32,32,0,0,0-8.3,1.1,23.73,23.73,0,0,0-7.3,3.3,16.39,16.39,0,0,0-5.1,5.6,16.13,16.13,0,0,0-1.9,8v69.6Z"/><path d="M3974.28,901.56h21l-43.8,124.6a44.55,44.55,0,0,1-4.1,8.9,21.56,21.56,0,0,1-5.4,6,21,21,0,0,1-7.5,3.4,43.48,43.48,0,0,1-10.4,1.1h-12.6v-17.8h17.6l6-17.6-37.8-108.6h21.8l20.8,61.2,6,22.6h1l6.6-22.6Z"/></g></g></svg>